<svg width="1440" height="128" viewBox="0 0 1440 128" fill="none" xmlns="http://www.w3.org/2000/svg">
<g clip-path="url(#clip0_2_6)">
<path opacity="0.25" d="M0 127.119V78.0826C57.348 54.5657 124.308 44.0042 189.6 48.4216C274.032 54.1102 353.196 83.7076 437.76 88.1462C526.368 92.7648 614.808 70.2648 699.6 50.7945C782.724 31.7267 865.56 24.4386 950.88 36.9386C994.26 43.2945 1034.7 55.8369 1076.22 68.0191C1187.39 100.636 1335.6 142.256 1440 71.536V127.119H0Z" fill="#02030E"/>
<path opacity="0.5" d="M0 127.119V110.371C15.6 88.0085 33.168 66.8856 57.228 50.7945C119.292 9.24789 198 9.53391 269.496 30.1059C306.876 40.8581 341.604 57.7225 377.1 72.267C426.204 92.3941 478.776 120.996 534.096 124.883C577.608 127.903 619.176 114.905 652.416 91.4513C690.54 64.5551 727.2 25.7733 776.772 14.1208C825.3 2.69069 874.392 21.2076 919.728 39.8411C965.064 58.4746 1009.92 81.1547 1060.03 85.4449C1131.71 91.642 1195.97 61.2076 1262.71 44.3009C1298.95 35.1271 1333.51 37.7648 1367.22 52.2458C1394.14 63.7818 1424.82 80.7733 1440 104.407V127.119H0Z" fill="#02030E"/>
<path d="M0 127.119V121.155C179.916 64.6187 376.908 51.5678 570.996 82.0233C622.596 90.1165 672.072 103.337 724.128 110.053C794.928 119.195 859.104 97.0869 922.8 72.553C993.516 45.3178 1063.2 26.2288 1141.44 31.7797C1245.28 39.1949 1348.39 80.2013 1440 121.621V127.119H0Z" fill="#02030E"/>
</g>
<defs>
<clipPath id="clip0_2_6">
<rect width="1440" height="127.119" fill="white" transform="matrix(1 0 0 -1 0 127.119)"/>
</clipPath>
</defs>
</svg>
