<svg width="69" height="74" viewBox="0 0 69 74" fill="none" xmlns="http://www.w3.org/2000/svg">
<g clip-path="url(#clip0_10_17)">
<path d="M8.39079 57.8775L5.64579 56.0134L4.70545 53.5053C2.76075 48.3183 2.61283 40.2671 4.30903 31.9287C4.81984 29.4176 5.2394 27.2513 5.24137 27.1148C5.24344 26.9783 5.55442 27.1158 5.93265 27.4209C6.92562 28.2213 9.43523 29.2701 11.4805 29.7394C12.4543 29.9628 13.3154 30.2022 13.3942 30.2714C13.4729 30.3406 13.1164 31.1299 12.602 32.0254C11.533 33.8861 10.0607 38.2343 9.49739 41.1944C8.62793 45.7628 9.22791 54.0134 10.7176 57.9736C11.0496 58.8564 11.2796 59.6153 11.2286 59.6602C11.1775 59.705 9.90054 58.9028 8.39079 57.8775Z" fill="#008080"/>
<path d="M44.4618 70.6494C37.0884 70.0738 29.3864 68.1711 23.0387 65.3569C19.7385 63.8938 14.883 61.3036 14.3816 60.7388C13.8551 60.1456 12.8198 56.6627 12.4632 54.2846C12.2852 53.0979 12.1566 49.9963 12.1627 47.0385C12.1729 42.0381 12.4913 38.8894 13.6691 32.1401L13.8625 31.032L15.8312 30.8671C21.3082 30.4084 25.9528 27.0643 28.5056 21.7414C29.1728 20.3501 29.9042 18.6023 30.1308 17.8574C30.7611 15.7857 30.8803 12.4511 30.4169 9.85419C29.8895 6.89851 29.9119 5.60137 30.5069 4.62791C31.7588 2.57977 34.7542 3.51446 37.2163 6.72153C39.2127 9.32209 39.8947 11.7937 39.8947 16.4279C39.8947 22.6451 38.6742 26.8937 35.6129 31.3328C34.845 32.4463 34.2167 33.4714 34.2167 33.6106C34.2167 34.0325 34.9596 33.8958 35.761 33.3266C36.5742 32.749 39.141 32.3649 44.483 32.0213C50.0662 31.6623 58.9395 33.2298 62.3447 35.1767C64.7247 36.5375 66.0449 38.1726 66.0566 39.774C66.0677 41.2857 64.3414 42.729 62.5223 42.729C61.0023 42.729 61.1395 43.5237 62.7549 44.0757C64.1285 44.5452 65.1523 46.2509 65.2672 48.261C65.3761 50.1682 64.8587 51.1551 63.1028 52.3895C61.0278 53.8481 60.9885 53.9711 61.9948 55.8626C63.3748 58.4566 63.1216 60.4057 61.2161 61.8554C60.4572 62.4328 60.0096 62.5583 58.3152 62.6684C56.5342 62.7842 56.3035 62.8548 56.2392 63.3035C56.193 63.6254 56.4762 64.0892 57.0208 64.5835C57.4905 65.0099 57.9502 65.5957 58.0424 65.8855C58.5617 67.5174 57.1027 69.5155 54.894 70.1975C53.5983 70.5976 47.2953 70.8706 44.4618 70.6494Z" fill="white"/>
<path d="M45.8443 72.521C38.4709 71.9454 30.7688 70.0426 24.4211 67.2285C21.121 65.7654 13.7968 62.4365 13.2954 61.8716C7.09534 53.8906 11.8911 38.9308 11.7888 32.9036L17.2136 32.7387C22.7074 32.5717 27.3353 28.9359 29.8881 23.613C30.5553 22.2217 31.2867 20.4739 31.5133 19.729C32.1436 17.6573 32.2628 14.3227 31.7994 11.7258C31.272 8.77009 31.2943 7.47295 31.8894 6.49949C33.1413 4.45135 36.1367 5.38605 38.5987 8.59312C40.5951 11.1937 40.5366 14.1578 40.5366 18.792C40.5366 25.0092 37.8348 28.7652 34.7735 33.2044C28.756 38.7877 42.6885 34.151 45.8655 33.8929C51.4487 33.5339 60.322 35.1014 63.7272 37.0483C66.1072 38.4091 67.4274 40.0442 67.4391 41.6456C62.1635 47.058 65.9633 44.6974 66.6497 50.1325C66.7586 52.0398 66.2412 53.0267 64.4853 54.2611C62.4102 55.7197 62.371 55.8427 63.3773 57.7342C64.7573 60.3282 64.5041 62.2773 62.5986 63.727C61.8397 64.3044 61.3921 64.4299 59.6976 64.54C57.9167 64.6558 57.686 64.7264 57.6217 65.1751C57.5755 65.497 57.8587 65.9608 58.4033 66.4551C58.873 66.8815 59.3327 67.4673 59.4249 67.757C59.9441 69.389 58.4852 71.3871 56.2765 72.0691C54.9807 72.4691 48.6778 72.7422 45.8443 72.521Z" fill="#FFD5D5"/>
<path fill-rule="evenodd" clip-rule="evenodd" d="M35.5395 32.4812C35.4587 32.2574 35.9651 31.8214 36.9996 31.2894C38.0341 30.7575 39.6018 30.1359 41.6224 29.6341C43.643 29.1323 46.119 28.7561 48.8905 28.7184C51.6619 28.6807 54.7273 28.9862 57.8386 29.7736C58.8204 30.022 59.7771 30.3103 60.702 30.6328C62.2954 31.1765 63.8815 31.8963 65.2673 32.8981C66.0459 33.4551 66.7361 34.1222 67.299 34.8606C67.8619 35.5989 68.2975 36.4083 68.5878 37.251C68.7802 37.8221 68.8931 38.428 68.9118 39.0405C68.9356 40.0619 68.6641 40.9995 68.2233 41.7685C67.7143 42.6531 67.0027 43.2831 66.2731 43.6784C65.3534 44.1751 64.442 44.2898 63.7159 44.2285C62.8884 44.1577 62.3112 43.8727 61.9734 43.6217C61.6356 43.3707 61.5261 43.1527 61.5874 43.0347C61.6487 42.9167 61.8763 42.8993 62.2317 42.8927C62.5871 42.8861 63.082 42.8869 63.6398 42.7453C64.1293 42.6219 64.6818 42.3806 65.149 41.9696C65.5207 41.6442 65.851 41.1989 66.037 40.6863C66.1999 40.2418 66.2622 39.7239 66.1811 39.2285C66.1365 38.9265 66.0275 38.6034 65.8778 38.2649C65.6622 37.7621 65.333 37.2782 64.9104 36.8232C64.4879 36.3682 63.9719 35.942 63.4017 35.5576C62.3594 34.8646 61.0531 34.3577 59.6008 33.8708C58.7545 33.594 57.8825 33.3405 56.9889 33.1144C54.1573 32.3978 51.3789 32.028 48.8334 31.8953C46.288 31.7626 43.9766 31.8649 42.0327 32.0368C40.0887 32.2086 38.5097 32.4461 37.3937 32.5718C36.2777 32.6974 35.6203 32.705 35.5395 32.4812Z" fill="black"/>
<path fill-rule="evenodd" clip-rule="evenodd" d="M63.9409 44.0741C63.9921 43.9309 64.1225 43.8185 64.3354 43.7543C64.5483 43.6902 64.844 43.675 65.2041 43.7409C65.5643 43.8069 65.989 43.9551 66.4338 44.2191C66.8787 44.4831 67.3435 44.8639 67.7593 45.3812C68.1623 45.8859 68.5086 46.5087 68.7314 47.2214C68.9543 47.9341 69.0526 48.7366 68.9722 49.5691C68.9456 49.8345 68.9012 50.1 68.8388 50.363C68.5341 51.6469 67.8223 52.7364 66.9616 53.4871C66.2623 54.0925 65.4953 54.4601 64.7931 54.6451C64.091 54.8301 63.4545 54.8353 62.9554 54.7488C62.4927 54.6674 62.1501 54.5103 61.9343 54.3396C61.7185 54.169 61.6282 53.9856 61.6489 53.813C61.6695 53.6403 61.7976 53.4888 61.9906 53.3411C62.1836 53.1934 62.4426 53.048 62.7317 52.8772C63.0397 52.6947 63.3847 52.4793 63.7272 52.2094C64.0697 51.9395 64.4107 51.6154 64.6909 51.2372C65.0398 50.7731 65.327 50.1933 65.4766 49.5673C65.5073 49.439 65.5314 49.3115 65.5489 49.1853C65.6647 48.3952 65.5356 47.5825 65.2932 46.9172C65.0479 46.2316 64.6569 45.6509 64.3566 45.1882C64.0564 44.7255 63.8385 44.3606 63.9409 44.0741V44.0741Z" fill="black"/>
<path fill-rule="evenodd" clip-rule="evenodd" d="M61.3369 54.1597C61.3891 54.0168 61.5381 53.9108 61.786 53.865C62.0339 53.8192 62.3814 53.8349 62.7999 53.9557C63.2184 54.0764 63.7081 54.3039 64.203 54.6806C64.6979 55.0573 65.1975 55.5846 65.5999 56.2805C65.9878 56.9597 66.2686 57.7771 66.3577 58.6741C66.4467 59.5711 66.3427 60.547 65.9871 61.4983C65.8717 61.8011 65.7326 62.0967 65.5709 62.3814C65.1762 63.0756 64.6644 63.6714 64.0883 64.1472C63.5122 64.623 62.8724 64.9789 62.2202 65.2136C61.1615 65.5877 60.1297 65.6245 59.2676 65.4748C58.4054 65.325 57.7119 64.993 57.2227 64.6342C56.7707 64.3002 56.4943 63.95 56.3586 63.6651C56.223 63.3802 56.2255 63.1605 56.3346 63.0248C56.4436 62.8891 56.6506 62.8437 56.9261 62.8402C57.2015 62.8368 57.5481 62.8742 57.9476 62.8929C58.372 62.9125 58.8637 62.9063 59.3875 62.8188C59.9113 62.7313 60.4684 62.5638 60.9655 62.2766C61.5827 61.9294 62.1738 61.3665 62.5671 60.679C62.6477 60.5381 62.718 60.3948 62.7773 60.2506C62.9689 59.8012 63.0659 59.3085 63.0887 58.8308C63.1116 58.3532 63.0595 57.8911 62.951 57.4758C62.8436 57.0474 62.6685 56.6486 62.4769 56.295C62.2853 55.9413 62.0766 55.6324 61.8904 55.3649C61.7043 55.0975 61.5402 54.8704 61.4353 54.6721C61.3304 54.4737 61.2847 54.3025 61.3369 54.1597H61.3369Z" fill="black"/>
<path fill-rule="evenodd" clip-rule="evenodd" d="M28.9348 17.074C29.1453 17.1223 29.2775 17.5142 29.2688 18.2046C29.2601 18.895 29.1043 19.8854 28.6835 21.059C28.2626 22.2325 27.5712 23.5889 26.5254 24.9297C25.4797 26.2706 24.0764 27.5927 22.3323 28.6435C21.6107 29.0766 20.837 29.4612 20.0225 29.784C18.8325 30.2557 17.6184 30.5701 16.4346 30.7418C15.2508 30.9134 14.0977 30.9426 13.0188 30.8591C11.5922 30.7476 10.3074 30.4412 9.21752 30.0482C8.12766 29.6552 7.23191 29.177 6.54296 28.7138C5.85401 28.2506 5.37027 27.8035 5.08257 27.4461C4.79487 27.0886 4.70147 26.8217 4.79712 26.6779C4.89277 26.534 5.16995 26.5219 5.59796 26.5964C6.02598 26.6709 6.6065 26.831 7.32493 27.0108C8.04336 27.1906 8.90107 27.3896 9.87615 27.5351C10.8512 27.6805 11.9442 27.7721 13.1114 27.7372C14.8768 27.6861 16.834 27.3372 18.7469 26.5799C19.4015 26.3208 20.0265 26.0241 20.6157 25.6973C20.6157 25.6973 20.6157 25.6973 20.6157 25.6973C22.034 24.9148 23.2502 23.9407 24.2526 22.9463C25.255 21.9519 26.0438 20.9379 26.6629 20.0465C27.282 19.1551 27.7348 18.3851 28.0938 17.853C28.4528 17.3208 28.7242 17.0257 28.9348 17.074Z" fill="black"/>
<path fill-rule="evenodd" clip-rule="evenodd" d="M56.6458 63.5539C56.681 63.4503 56.9194 63.3996 57.3443 63.5083C57.5568 63.5627 57.8142 63.6599 58.0967 63.8256C58.3792 63.9912 58.6873 64.2257 58.9805 64.5555C59.2344 64.842 59.4734 65.1972 59.6596 65.6227C59.8458 66.0482 59.9793 66.5443 60.0107 67.0971C60.0565 68.0498 59.8046 69.1204 59.1728 70.0784C58.637 70.8917 57.8754 71.6182 56.9518 72.1573C56.9518 72.1573 56.9517 72.1573 56.9517 72.1573C56.158 72.6113 55.2835 72.9521 54.3667 73.1949C53.45 73.4377 52.4909 73.5823 51.5468 73.6753C51.5468 73.6753 51.5468 73.6753 51.5468 73.6753C48.6871 73.999 45.4863 74.1072 42.0773 73.878C38.6683 73.6488 35.0521 73.081 31.398 72.1129C28.8586 71.4401 26.4307 70.6098 24.155 69.6695C24.155 69.6695 24.155 69.6695 24.155 69.6695C20.4614 68.1454 17.1678 66.3282 14.3737 64.4609C11.5797 62.5935 9.28326 60.6791 7.49713 58.9652C5.711 57.2514 4.43075 55.7409 3.629 54.6428C2.82724 53.5448 2.49821 52.862 2.65252 52.7249C2.80684 52.5878 3.43086 53.0059 4.4781 53.8302C5.52534 54.6545 7.0014 55.882 8.91106 57.3107C10.8207 58.7394 13.1681 60.3673 15.9346 61.9772C18.7012 63.5871 21.8884 65.177 25.4131 66.5442C25.4131 66.5442 25.4131 66.5442 25.4131 66.5442C27.5855 67.3856 29.8871 68.1436 32.2857 68.7793C35.7372 69.694 39.1366 70.2858 42.35 70.6055C45.5633 70.9253 48.5899 70.9738 51.3214 70.8532C51.3214 70.8532 51.3214 70.8532 51.3214 70.8532C52.2179 70.7999 53.055 70.7466 53.809 70.6282C54.5631 70.5098 55.2344 70.3263 55.8159 70.0446H55.816C56.4925 69.7277 57.0651 69.3191 57.4668 68.8436C57.9328 68.2924 58.217 67.6568 58.2841 67.0732C58.3278 66.7368 58.3072 66.4032 58.2465 66.0976C58.1858 65.792 58.085 65.514 57.9643 65.2718C57.6873 64.7127 57.3087 64.3329 57.0418 64.073C56.775 63.8131 56.6106 63.6575 56.6458 63.5539Z" fill="black"/>
<path fill-rule="evenodd" clip-rule="evenodd" d="M13.5943 29.6353C13.8148 29.7261 13.8402 30.244 13.7368 31.0992C13.6334 31.9544 13.4039 33.1488 13.1436 34.6112C12.8833 36.0736 12.5939 37.8051 12.3651 39.7307C12.1363 41.6562 11.9691 43.7759 11.9259 46.0026C11.8758 48.5824 11.9996 51.0218 12.2066 53.1853C12.3098 54.2417 12.4237 55.1957 12.5917 56.0442C12.9249 57.7504 13.463 59.127 13.8405 60.1123C14.2181 61.0977 14.4281 61.7121 14.2197 61.8855C14.1155 61.9722 13.9146 61.9408 13.6323 61.7868C13.3499 61.6328 12.9863 61.3556 12.5769 60.9435C12.1676 60.5314 11.7127 59.9838 11.2651 59.2929C10.8175 58.602 10.3775 57.7671 10.0107 56.7945C9.64851 55.8283 9.36646 54.7562 9.14502 53.6406C8.68686 51.3544 8.41655 48.7203 8.47023 45.9361C8.51657 43.5329 8.79811 41.2507 9.22256 39.215C9.647 37.1793 10.2122 35.3904 10.7961 33.9353C11.3799 32.4803 11.9799 31.3579 12.4791 30.6245C12.9782 29.8911 13.3739 29.5445 13.5943 29.6353Z" fill="black"/>
<path fill-rule="evenodd" clip-rule="evenodd" d="M5.13564 26.6498C5.35189 26.7501 5.37281 27.2296 5.26621 28.0073C5.15962 28.785 4.92834 29.8629 4.66775 31.1803C4.40715 32.4978 4.11899 34.056 3.8922 35.7897C3.66541 37.5234 3.50099 39.4325 3.46136 41.4379C3.41613 43.7274 3.54034 45.8935 3.74869 47.8192C3.85342 48.7654 3.96698 49.616 4.131 50.3698C4.46135 51.9137 4.99356 53.1582 5.3696 54.0544C5.74564 54.9506 5.96022 55.52 5.76105 55.7077C5.66146 55.8015 5.46575 55.7916 5.18759 55.6707C4.90943 55.5498 4.54895 55.3172 4.14051 54.958C3.73207 54.5988 3.27586 54.1121 2.82462 53.4867C2.37339 52.8613 1.92747 52.0965 1.55399 51.1954C1.19241 50.3169 0.907947 49.3408 0.685479 48.3284C0.227424 46.2653 -0.0434021 43.8846 0.00571727 41.3704C0.0487399 39.1681 0.331363 37.0779 0.758531 35.2217C1.1857 33.3655 1.75514 31.7434 2.3419 30.4338C2.92866 29.1243 3.53014 28.126 4.0285 27.4829C4.52687 26.8398 4.9194 26.5495 5.13564 26.6498Z" fill="black"/>
<path fill-rule="evenodd" clip-rule="evenodd" d="M26.0451 23.9191C25.9316 23.8318 26.0263 23.4953 26.2505 22.9285C26.4747 22.3618 26.8264 21.5602 27.1708 20.5175C27.5152 19.4748 27.8513 18.1864 28.0103 16.6914C28.1693 15.1965 28.1506 13.4921 27.7627 11.7197C27.6237 11.084 27.4284 10.4004 27.2378 9.6466C27.0471 8.89281 26.8611 8.06881 26.7638 7.14974C26.6742 6.29242 26.7023 5.35443 26.9392 4.37775C27.1667 3.42977 27.6469 2.48342 28.4227 1.67639C29.1833 0.920376 30.1336 0.399995 31.1601 0.166041C32.153 -0.0596771 33.1709 -0.0516505 34.1327 0.168114C35.979 0.616233 37.5556 1.6437 38.7593 2.89071C39.001 3.13353 39.2346 3.38496 39.4595 3.64442C41.2643 5.72599 42.4138 8.20957 42.9369 10.6959C43.3342 12.6023 43.3964 14.439 43.3325 16.1415C43.281 18.0228 43.0588 19.8383 42.6969 21.5137C42.335 23.1891 41.8339 24.7243 41.2466 26.0793C40.6592 27.4343 39.9863 28.6095 39.2946 29.5962C38.6029 30.583 37.8932 31.3821 37.2355 32.0081C36.4132 32.7839 35.6863 33.2841 35.1597 33.5709C34.6331 33.8577 34.3064 33.9339 34.2209 33.8253C34.1354 33.7168 34.2945 33.4296 34.6317 32.9661C34.9688 32.5026 35.4838 31.8596 36.0675 31.0056C36.5394 30.3222 37.0498 29.505 37.5379 28.5397C38.026 27.5745 38.4914 26.4604 38.8843 25.1988C39.2771 23.9372 39.5972 22.5275 39.8127 20.9968C40.0283 19.4662 40.1392 17.8144 40.135 16.0997C40.1141 14.536 40.016 12.9481 39.6467 11.4284C39.1728 9.45841 38.2435 7.4996 36.8503 5.89957C36.6766 5.70014 36.4969 5.50768 36.3115 5.3227C35.3668 4.41814 34.3745 3.68588 33.3701 3.48114C32.8581 3.36331 32.3446 3.33563 31.8993 3.43367C31.4477 3.53243 31.0228 3.73088 30.7384 4.00771C30.4215 4.28071 30.1891 4.72658 30.0299 5.20914C29.8649 5.71869 29.8288 6.31163 29.846 6.9274C29.8636 7.59265 29.985 8.28766 30.122 9.00942C30.259 9.73118 30.4115 10.4796 30.5146 11.2476C30.5146 11.2476 30.5146 11.2476 30.5146 11.2476C30.8052 13.4104 30.6251 15.3987 30.2301 17.0771C29.835 18.7555 29.227 20.1273 28.6183 21.1744C28.0096 22.2214 27.4017 22.9485 26.9386 23.3936C26.4756 23.8387 26.1586 24.0064 26.0451 23.9191V23.9191Z" fill="black"/>
</g>
<defs>
<clipPath id="clip0_10_17">
<rect width="69" height="74" fill="white"/>
</clipPath>
</defs>
</svg>
